<svg width="44" height="44" viewBox="0 0 44 44" fill="none" xmlns="http://www.w3.org/2000/svg">
<rect width="44" height="44" rx="14" fill="#F4FAFF"/>
<path d="M23.7299 13.51L25.4899 17.03C25.7299 17.52 26.3699 17.99 26.9099 18.08L30.0999 18.61C32.1399 18.95 32.6199 20.43 31.1499 21.89L28.6699 24.37C28.2499 24.79 28.0199 25.6 28.1499 26.18L28.8599 29.25C29.4199 31.68 28.1299 32.62 25.9799 31.35L22.9899 29.58C22.4499 29.26 21.5599 29.26 21.0099 29.58L18.0199 31.35C15.8799 32.62 14.5799 31.67 15.1399 29.25L15.8499 26.18C15.9799 25.6 15.7499 24.79 15.3299 24.37L12.8499 21.89C11.3899 20.43 11.8599 18.95 13.8999 18.61L17.0899 18.08C17.6199 17.99 18.2599 17.52 18.4999 17.03L20.2599 13.51C21.2199 11.6 22.7799 11.6 23.7299 13.51Z" stroke="#2B83FF" stroke-width="1.5" stroke-linecap="round" stroke-linejoin="round"/>
</svg>
