<svg width="44" height="44" viewBox="0 0 44 44" fill="none" xmlns="http://www.w3.org/2000/svg">
<rect width="44" height="44" rx="14" fill="#F4FAFF"/>
<path d="M12 19.75C11.59 19.75 11.25 19.41 11.25 19V16.5C11.25 13.6 13.61 11.25 16.5 11.25H19C19.41 11.25 19.75 11.59 19.75 12C19.75 12.41 19.41 12.75 19 12.75H16.5C14.43 12.75 12.75 14.43 12.75 16.5V19C12.75 19.41 12.41 19.75 12 19.75Z" fill="#2B83FF"/>
<path d="M32 19.75C31.59 19.75 31.25 19.41 31.25 19V16.5C31.25 14.43 29.57 12.75 27.5 12.75H25C24.59 12.75 24.25 12.41 24.25 12C24.25 11.59 24.59 11.25 25 11.25H27.5C30.39 11.25 32.75 13.6 32.75 16.5V19C32.75 19.41 32.41 19.75 32 19.75Z" fill="#2B83FF"/>
<path d="M27.5 32.75H26C25.59 32.75 25.25 32.41 25.25 32C25.25 31.59 25.59 31.25 26 31.25H27.5C29.57 31.25 31.25 29.57 31.25 27.5V26C31.25 25.59 31.59 25.25 32 25.25C32.41 25.25 32.75 25.59 32.75 26V27.5C32.75 30.4 30.39 32.75 27.5 32.75Z" fill="#2B83FF"/>
<path d="M19 32.75H16.5C13.61 32.75 11.25 30.4 11.25 27.5V25C11.25 24.59 11.59 24.25 12 24.25C12.41 24.25 12.75 24.59 12.75 25V27.5C12.75 29.57 14.43 31.25 16.5 31.25H19C19.41 31.25 19.75 31.59 19.75 32C19.75 32.41 19.41 32.75 19 32.75Z" fill="#2B83FF"/>
<path d="M19 21.25H17C15.59 21.25 14.75 20.41 14.75 19V17C14.75 15.59 15.59 14.75 17 14.75H19C20.41 14.75 21.25 15.59 21.25 17V19C21.25 20.41 20.41 21.25 19 21.25ZM17 16.25C16.41 16.25 16.25 16.41 16.25 17V19C16.25 19.59 16.41 19.75 17 19.75H19C19.59 19.75 19.75 19.59 19.75 19V17C19.75 16.41 19.59 16.25 19 16.25H17Z" fill="#2B83FF"/>
<path d="M27 21.25H25C23.59 21.25 22.75 20.41 22.75 19V17C22.75 15.59 23.59 14.75 25 14.75H27C28.41 14.75 29.25 15.59 29.25 17V19C29.25 20.41 28.41 21.25 27 21.25ZM25 16.25C24.41 16.25 24.25 16.41 24.25 17V19C24.25 19.59 24.41 19.75 25 19.75H27C27.59 19.75 27.75 19.59 27.75 19V17C27.75 16.41 27.59 16.25 27 16.25H25Z" fill="#2B83FF"/>
<path d="M19 29.25H17C15.59 29.25 14.75 28.41 14.75 27V25C14.75 23.59 15.59 22.75 17 22.75H19C20.41 22.75 21.25 23.59 21.25 25V27C21.25 28.41 20.41 29.25 19 29.25ZM17 24.25C16.41 24.25 16.25 24.41 16.25 25V27C16.25 27.59 16.41 27.75 17 27.75H19C19.59 27.75 19.75 27.59 19.75 27V25C19.75 24.41 19.59 24.25 19 24.25H17Z" fill="#2B83FF"/>
<path d="M27 29.25H25C23.59 29.25 22.75 28.41 22.75 27V25C22.75 23.59 23.59 22.75 25 22.75H27C28.41 22.75 29.25 23.59 29.25 25V27C29.25 28.41 28.41 29.25 27 29.25ZM25 24.25C24.41 24.25 24.25 24.41 24.25 25V27C24.25 27.59 24.41 27.75 25 27.75H27C27.59 27.75 27.75 27.59 27.75 27V25C27.75 24.41 27.59 24.25 27 24.25H25Z" fill="#2B83FF"/>
</svg>
