<svg width="44" height="44" viewBox="0 0 44 44" fill="none" xmlns="http://www.w3.org/2000/svg">
<rect width="44" height="44" rx="14" fill="#F4FAFF"/>
<path d="M30.6199 23.07C30.2399 23.07 29.9199 22.78 29.8699 22.4C29.6299 20.14 28.4099 18.09 26.5299 16.79C26.1899 16.55 26.1099 16.09 26.3399 15.75C26.5799 15.41 27.0499 15.33 27.3799 15.56C29.6199 17.11 31.0599 19.55 31.3499 22.24C31.3899 22.65 31.0999 23.02 30.6799 23.07C30.6699 23.07 30.6399 23.07 30.6199 23.07Z" fill="#2B83FF"/>
<path d="M13.4899 23.12C13.4599 23.12 13.4399 23.12 13.4099 23.12C12.9999 23.07 12.6999 22.7 12.7399 22.29C13.0099 19.6 14.4399 17.17 16.6499 15.6C16.9899 15.36 17.4599 15.44 17.6999 15.78C17.9399 16.12 17.8599 16.59 17.5199 16.83C15.6599 18.14 14.4599 20.19 14.2299 22.45C14.1999 22.83 13.8699 23.12 13.4899 23.12Z" fill="#2B83FF"/>
<path d="M22.06 32.61C20.58 32.61 19.17 32.27 17.85 31.61C17.48 31.42 17.33 30.97 17.52 30.6C17.71 30.23 18.16 30.08 18.53 30.27C20.69 31.36 23.29 31.38 25.47 30.33C25.84 30.15 26.29 30.31 26.47 30.68C26.65 31.05 26.49 31.5 26.12 31.68C24.84 32.3 23.48 32.61 22.06 32.61Z" fill="#2B83FF"/>
<path d="M22.06 18.44C20.11 18.44 18.53 16.86 18.53 14.91C18.53 12.96 20.11 11.38 22.06 11.38C24.01 11.38 25.59 12.96 25.59 14.91C25.59 16.86 24 18.44 22.06 18.44ZM22.06 12.89C20.94 12.89 20.03 13.8 20.03 14.92C20.03 16.04 20.94 16.95 22.06 16.95C23.18 16.95 24.09 16.04 24.09 14.92C24.09 13.8 23.17 12.89 22.06 12.89Z" fill="#2B83FF"/>
<path d="M14.83 30.67C12.88 30.67 11.3 29.09 11.3 27.14C11.3 25.2 12.88 23.61 14.83 23.61C16.78 23.61 18.36 25.19 18.36 27.14C18.36 29.08 16.78 30.67 14.83 30.67ZM14.83 25.11C13.71 25.11 12.8 26.02 12.8 27.14C12.8 28.26 13.71 29.17 14.83 29.17C15.95 29.17 16.86 28.26 16.86 27.14C16.86 26.02 15.95 25.11 14.83 25.11Z" fill="#2B83FF"/>
<path d="M29.1699 30.67C27.2199 30.67 25.6399 29.09 25.6399 27.14C25.6399 25.2 27.2199 23.61 29.1699 23.61C31.1199 23.61 32.6999 25.19 32.6999 27.14C32.6899 29.08 31.1099 30.67 29.1699 30.67ZM29.1699 25.11C28.0499 25.11 27.1399 26.02 27.1399 27.14C27.1399 28.26 28.0499 29.17 29.1699 29.17C30.2899 29.17 31.1999 28.26 31.1999 27.14C31.1899 26.02 30.2899 25.11 29.1699 25.11Z" fill="#2B83FF"/>
</svg>
