<svg width="44" height="44" viewBox="0 0 44 44" fill="none" xmlns="http://www.w3.org/2000/svg">
<rect width="44" height="44" rx="14" fill="#F4FAFF"/>
<path d="M27.98 20.79V24.79C27.98 25.05 27.97 25.3 27.94 25.54C27.71 28.24 26.12 29.58 23.19 29.58H22.79C22.54 29.58 22.3 29.7 22.15 29.9L20.95 31.5C20.42 32.21 19.56 32.21 19.03 31.5L17.83 29.9C17.7 29.73 17.41 29.58 17.19 29.58H16.79C13.6 29.58 12 28.79 12 24.79V20.79C12 17.86 13.35 16.27 16.04 16.04C16.28 16.01 16.53 16 16.79 16H23.19C26.38 16 27.98 17.6 27.98 20.79Z" stroke="#2B83FF" stroke-width="1.5" stroke-miterlimit="10" stroke-linecap="round" stroke-linejoin="round"/>
<path d="M31.98 16.79V20.79C31.98 23.73 30.63 25.31 27.94 25.54C27.97 25.3 27.98 25.05 27.98 24.79V20.79C27.98 17.6 26.38 16 23.19 16H16.79C16.53 16 16.28 16.01 16.04 16.04C16.27 13.35 17.86 12 20.79 12H27.19C30.38 12 31.98 13.6 31.98 16.79Z" stroke="#2B83FF" stroke-width="1.5" stroke-miterlimit="10" stroke-linecap="round" stroke-linejoin="round"/>
<path d="M23.4955 23.25H23.5045" stroke="#2B83FF" stroke-width="2" stroke-linecap="round" stroke-linejoin="round"/>
<path d="M19.9955 23.25H20.0045" stroke="#2B83FF" stroke-width="2" stroke-linecap="round" stroke-linejoin="round"/>
<path d="M16.4955 23.25H16.5045" stroke="#2B83FF" stroke-width="2" stroke-linecap="round" stroke-linejoin="round"/>
</svg>
